<svg xmlns="http://www.w3.org/2000/svg" width="20" height="19" viewBox="0 0 20 19" fill="none">
            <path fill-rule="evenodd" clip-rule="evenodd" d="M10 1.75C7.92893 1.75 6.25 3.42893 6.25 5.5C6.25 7.57107 7.92893 9.25 10 9.25C12.0711 9.25 13.75 7.57107 13.75 5.5C13.75 3.42893 12.0711 1.75 10 1.75ZM4.75 5.5C4.75 2.6005 7.10051 0.25 10 0.25C12.8995 0.25 15.25 2.6005 15.25 5.5C15.25 8.3995 12.8995 10.75 10 10.75C7.10051 10.75 4.75 8.3995 4.75 5.5ZM10 14.75C6.73336 14.75 3.75394 16.1724 1.5457 18.5145C1.26155 18.8159 0.786881 18.8299 0.4855 18.5457C0.184119 18.2615 0.170151 17.7869 0.454303 17.4855C2.91764 14.8728 6.28068 13.25 10 13.25C13.7193 13.25 17.0824 14.8728 19.5457 17.4855C19.8299 17.7869 19.8159 18.2615 19.5145 18.5457C19.2131 18.8299 18.7385 18.8159 18.4543 18.5145C16.2461 16.1724 13.2666 14.75 10 14.75Z" fill="black"></path>
        </svg>